HIERARCHY
ROOT Hips
{
	OFFSET -1.602300 6.242603 43.997101
	CHANNELS 6 Xposition Yposition Zposition Zrotation Xrotation Yrotation
	JOINT Chest
	{
		OFFSET -0.204900 1.598101 7.917301
		CHANNELS 6 Xposition Yposition Zposition Zrotation Xrotation Yrotation
		JOINT Chest2
		{
			OFFSET 0.000000 0.000000 3.404099
			CHANNELS 6 Xposition Yposition Zposition Zrotation Xrotation Yrotation
			JOINT Neck
			{
				OFFSET 0.000000 0.000000 7.928600
				CHANNELS 6 Xposition Yposition Zposition Zrotation Xrotation Yrotation
				JOINT Head
				{
					OFFSET 0.000000 0.000000 2.173897
					CHANNELS 6 Xposition Yposition Zposition Zrotation Xrotation Yrotation
					End Site
					{
						OFFSET 0.000000 0.000001 10.404503
					}
				}
			}
			JOINT LeftCollar
			{
				OFFSET 2.833800 -1.396299 4.843300
				CHANNELS 6 Xposition Yposition Zposition Zrotation Xrotation Yrotation
				JOINT LeftShoulder
				{
					OFFSET 4.363600 0.000000 0.000000
					CHANNELS 6 Xposition Yposition Zposition Zrotation Xrotation Yrotation
					JOINT LeftElbow
					{
						OFFSET 0.000000 -0.000001 -10.306900
						CHANNELS 6 Xposition Yposition Zposition Zrotation Xrotation Yrotation
						JOINT LeftWrist
						{
							OFFSET 0.000000 -0.000001 -12.404900
							CHANNELS 6 Xposition Yposition Zposition Zrotation Xrotation Yrotation
							End Site
							{
								OFFSET 0.000000 0.000000 -2.173901
							}
						}
					}
				}
			}
			JOINT RightCollar
			{
				OFFSET -2.354800 -1.897200 5.063099
				CHANNELS 6 Xposition Yposition Zposition Zrotation Xrotation Yrotation
				JOINT RightShoulder
				{
					OFFSET -4.375800 0.000000 0.000000
					CHANNELS 6 Xposition Yposition Zposition Zrotation Xrotation Yrotation
					JOINT RightElbow
					{
						OFFSET 0.000000 -0.000001 -10.005001
						CHANNELS 6 Xposition Yposition Zposition Zrotation Xrotation Yrotation
						JOINT RightWrist
						{
							OFFSET 0.000000 -0.000001 -13.174900
							CHANNELS 6 Xposition Yposition Zposition Zrotation Xrotation Yrotation
							End Site
							{
								OFFSET 0.000000 0.000000 -2.173901
							}
						}
					}
				}
			}
		}
	}
	JOINT LeftHip
	{
		OFFSET 2.240600 0.386800 -2.614101
		CHANNELS 6 Xposition Yposition Zposition Zrotation Xrotation Yrotation
		JOINT LeftKnee
		{
			OFFSET 0.000000 -0.000001 -18.592899
			CHANNELS 6 Xposition Yposition Zposition Zrotation Xrotation Yrotation
			JOINT LeftAnkle
			{
				OFFSET 0.000000 -0.000001 -18.765800
				CHANNELS 6 Xposition Yposition Zposition Zrotation Xrotation Yrotation
				End Site
				{
					OFFSET 0.000000 -8.655000 0.000000
				}
			}
		}
	}
	JOINT RightHip
	{
		OFFSET -2.014900 -0.220900 -2.615898
		CHANNELS 6 Xposition Yposition Zposition Zrotation Xrotation Yrotation
		JOINT RightKnee
		{
			OFFSET 0.000000 -0.000001 -18.633900
			CHANNELS 6 Xposition Yposition Zposition Zrotation Xrotation Yrotation
			JOINT RightAnkle
			{
				OFFSET 0.000000 -0.000001 -18.285101
				CHANNELS 6 Xposition Yposition Zposition Zrotation Xrotation Yrotation
				End Site
				{
					OFFSET 0.000000 -7.524500 0.000000
				}
			}
		}
	}
}
MOTION
Frames: 4
Frame Time: 0.041667
-5.980199 27.051405 7.083302 3.427780 -3.609393 3.418407 -0.204900 1.598102 7.917309 -1.167947 40.778842 -0.430551 -0.000000 0.000002 3.404099 1.933123 -11.745549 -0.636589 0.000000 -0.000006 7.928595 -5.107202 20.177320 -0.498600 -0.000000 0.000001 2.173901 -0.276097 1.173663 0.758105 2.833801 -1.396303 4.843305 1.710868 0.708643 0.865666 4.363600 0.000000 0.000007 -26.974707 3.899496 -19.306616 -0.000003 0.000004 -10.306898 617.310202 -147.881478 560.939504 0.000004 0.000006 -12.404903 43.033829 350.234615 -304.625699 -2.354801 -1.897200 5.063100 6.361068 -5.994739 -4.961372 -4.375798 -0.000001 0.000006 6.430492 8.178182 25.315085 0.000002 0.000006 -10.004997 -630.652567 -166.317661 -586.928319 -0.000005 0.000006 -13.174894 1.381791 -38.137041 318.476640 2.240599 0.386806 -2.614104 137.913786 -34.964316 106.536840 -0.000000 0.000002 -18.592892 -115.713035 37.646787 133.966770 -0.000001 -0.000000 -18.765799 10.322084 34.373354 1.128546 -2.014897 -0.220894 -2.615898 -115.533142 -16.341610 -93.390823 0.000000 0.000005 -18.633884 173.328099 27.124833 -178.096609 -0.000006 -0.000004 -18.285084 -17.341386 32.965713 -204.994386
-5.980299 27.044403 7.088112 3.451671 -3.603005 3.401242 -0.204901 1.598097 7.917306 -1.191027 40.869004 -0.475948 -0.000000 0.000000 3.404104 2.198031 -11.804513 -0.583960 -0.000000 0.000004 7.928604 -5.698354 20.598626 -0.174962 0.000000 -0.000001 2.173899 -0.129650 1.352961 0.579201 2.833800 -1.396297 4.843307 1.461063 1.269057 0.970724 4.363600 -0.000001 0.000007 -27.308256 4.076445 -19.042555 -0.000006 0.000005 -10.306891 617.524834 -147.666709 561.076381 0.000005 0.000005 -12.404900 43.798045 349.935726 -304.902896 -2.354802 -1.897196 5.063106 6.185732 -6.048670 -5.338444 -4.375799 -0.000002 0.000007 7.215878 10.015824 24.962695 0.000002 0.000001 -10.005002 -630.439465 -165.721508 -586.888868 -0.000008 0.000004 -13.174900 1.345950 -37.830444 318.374406 2.240598 0.386803 -2.614101 137.867505 -35.032966 106.472356 -0.000000 0.000001 -18.592892 -115.755314 37.806378 134.052817 -0.000002 -0.000001 -18.765797 10.234355 34.463130 0.706266 -2.014898 -0.220896 -2.615898 -115.578221 -16.295073 -93.373440 0.000000 0.000005 -18.633883 173.337278 27.111498 -178.068045 -0.000006 -0.000003 -18.285084 -17.384740 32.969788 -204.956902
-5.980600 27.037504 7.092907 3.464848 -3.601675 3.387047 -0.204900 1.598098 7.917301 -1.200840 40.950802 -0.528903 -0.000000 -0.000002 3.404099 2.430962 -11.969454 -0.548221 0.000000 -0.000002 7.928600 -6.260673 21.116636 0.183059 -0.000000 -0.000001 2.173904 0.013231 1.539834 0.407897 2.833800 -1.396303 4.843305 1.279353 1.854703 0.965823 4.363599 0.000001 0.000001 -27.569980 4.305059 -18.706676 -0.000005 0.000002 -10.306898 617.582699 -147.554913 561.203859 0.000004 0.000006 -12.404902 44.085511 349.688391 -304.385878 -2.354801 -1.897199 5.063103 6.055343 -5.955895 -5.614290 -4.375798 -0.000001 0.000012 7.832499 11.647077 24.611036 0.000001 0.000001 -10.004997 -630.141614 -165.359495 -586.826139 -0.000007 0.000005 -13.174898 1.625256 -37.440341 318.026995 2.240600 0.386800 -2.614105 137.831155 -35.097159 106.407701 0.000000 0.000002 -18.592894 -115.817674 37.971942 134.149369 -0.000002 0.000001 -18.765799 10.139867 34.549078 0.282229 -2.014897 -0.220897 -2.615899 -115.609394 -16.257903 -93.338503 -0.000000 0.000002 -18.633886 173.339232 27.101040 -178.043798 -0.000006 -0.000006 -18.285084 -17.434259 32.978728 -204.918994
-5.980899 27.030401 7.097603 3.469208 -3.601691 3.368348 -0.204901 1.598098 7.917306 -1.203507 41.039014 -0.585763 -0.000000 0.000000 3.404110 2.653010 -11.985328 -0.505500 -0.000001 0.000002 7.928600 -6.775981 21.457198 0.513243 0.000000 -0.000001 2.173897 0.164202 1.722698 0.233557 2.833800 -1.396298 4.843306 1.196250 2.180009 0.944801 4.363599 -0.000005 0.000002 -27.871881 4.611900 -18.396874 -0.000006 0.000001 -10.306896 617.378832 -147.615852 561.149983 0.000005 0.000006 -12.404900 44.166981 349.618532 -303.616170 -2.354802 -1.897194 5.063105 5.873441 -6.057166 -5.850766 -4.375796 0.000000 0.000002 8.385309 13.208157 24.345137 0.000002 0.000006 -10.005001 -629.747485 -165.126244 -586.789529 -0.000005 0.000003 -13.174899 1.854505 -37.150567 317.738898 2.240598 0.386803 -2.614102 137.806238 -35.365910 106.351141 -0.000000 0.000000 -18.592896 -115.684253 38.185187 134.220116 0.000001 0.000000 -18.765797 10.014660 34.624869 -0.132886 -2.014898 -0.220896 -2.615899 -115.680141 -15.968567 -93.325540 -0.000000 0.000005 -18.633886 173.494072 27.044226 -177.975796 -0.000006 -0.000005 -18.285084 -17.540390 32.975778 -204.808085
